<?xml version="1.0" encoding="UTF-8" standalone="no"?>
<!-- Uploaded to: SVG Repo, www.svgrepo.com, Generator: SVG Repo Mixer Tools -->

<svg
   fill="#000000"
   version="1.1"
   id="Capa_1"
   width="800px"
   height="800px"
   viewBox="0 0 322.199 322.199"
   xml:space="preserve"
   sodipodi:docname="MusicNote.svg"
   inkscape:version="1.4.4 (dcaf3e7d9e, 2026-05-05)"
   xmlns:inkscape="http://www.inkscape.org/namespaces/inkscape"
   xmlns:sodipodi="http://sodipodi.sourceforge.net/DTD/sodipodi-0.dtd"
   xmlns="http://www.w3.org/2000/svg"
   xmlns:svg="http://www.w3.org/2000/svg"><defs
   id="defs1" /><sodipodi:namedview
   id="namedview1"
   pagecolor="#ffffff"
   bordercolor="#000000"
   borderopacity="0.25"
   inkscape:showpageshadow="2"
   inkscape:pageopacity="0.0"
   inkscape:pagecheckerboard="0"
   inkscape:deskcolor="#d1d1d1"
   inkscape:zoom="0.7175"
   inkscape:cx="310.80139"
   inkscape:cy="197.90941"
   inkscape:window-width="2560"
   inkscape:window-height="1361"
   inkscape:window-x="0"
   inkscape:window-y="0"
   inkscape:window-maximized="1"
   inkscape:current-layer="Capa_1" />
<g
   id="g1">
	<path
   d="m 97.173,322.156 c 35.754,0.874 67.271,-11.577 84.481,-30.805 6.111,-6.845 10.074,-14.932 10.836,-16.527 0.448,-0.949 0.825,-1.955 1.149,-2.997 l 45.168,-148.824 c 2.678,-8.782 9.991,-10.542 15.978,-3.577 4.629,5.392 9.606,11.507 14.659,18.304 20.823,27.968 22.502,64.76 11.397,94.439 -11.112,29.667 -32.111,38.046 -25.375,47.436 6.757,9.418 33.226,-13.974 50.453,-41.793 17.212,-27.824 19.136,-74.354 3.603,-112.445 -15.54,-38.099 -38.17,-62.592 -42.486,-82.467 -0.269,-1.272 -0.545,-2.523 -0.821,-3.737 -0.453,-2.06 -0.269,-5.574 0.429,-7.837 l 1.242,-4.105 C 271.277,16.075 264.996,4.299 253.828,0.914 242.687,-2.47 230.913,3.828 227.531,14.966 L 172.77,195.409 c -2.673,8.784 -10.884,11.481 -19.142,7.494 -15.156,-7.325 -33.448,-11.817 -53.236,-12.303 -53.387,-1.311 -97.377,27.086 -98.267,63.426 -0.89,36.324 41.659,66.836 95.048,68.13 z"
   id="path1"
   style="display:inline;fill:#ffffff" />
</g>
</svg>
